# xmcd CD database file
# Copyright (C) 1997 Ti Kan
# 
# Track frame offsets:
#     150
#     14875
#     31357
#     46977
#     65077
#     82405
#     95850
#     111457
#     129897
#     147905
#     164790
#     184062
#     198887
#     209180
#     223012
#     233412
#     249142
#     264820
# 
# Disc length: 3740 seconds
# 
# Revision: 1
# Processed by: cddbd v1.4b41PL1 Copyright (c) Steve Scherf et al.
# Submitted via: DiscPlay 4.0.4
# 
DISCID=150e9a12
DTITLE=NIGHTCATS - GOT BLUES IF YOU WANT IT!
DYEAR=1900
DGENRE=
TTITLE0=THEN THE BLUES GOT ME
TTITLE1=MY BACK SCRATCHER
TTITLE2=CRAZY MIXED UP WORLD
TTITLE3=I M AFRAID (SHE S GONNA DO IT AGAIN)
TTITLE4=MONEY TREE
TTITLE5=SOUL SURVIVOR
TTITLE6=MY HEART BEATS HEAVY
TTITLE7=BLUE MIDNIGHT
TTITLE8=MIDNIGHT CALLER
TTITLE9=EVIL MAN
TTITLE10=(IF YOU GOT TO) LOVE SOMEBODY
TTITLE11=UP THE LINE
TTITLE12=JUMPIN  BAD
TTITLE13=YOU WERE WRONG
TTITLE14=HELLO MY DARLING
TTITLE15=STRAIGHTEN UP BABY
TTITLE16=GOT LOVE IF YOU WANT IT
TTITLE17=YOU RE GONNA MAKE ME CRY
EXTD=
EXTT0=
EXTT1=
EXTT2=
EXTT3=
EXTT4=
EXTT5=
EXTT6=
EXTT7=
EXTT8=
EXTT9=
EXTT10=
EXTT11=
EXTT12=
EXTT13=
EXTT14=
EXTT15=
EXTT16=
EXTT17=
PLAYORDER=
